<svg width="248" height="340" viewBox="0 0 248 340" fill="none" xmlns="http://www.w3.org/2000/svg">
<g clip-path="url(#clip0_4075_6534)">
<path d="M240 0.75H8C3.99594 0.75 0.75 3.99594 0.75 8V332C0.75 336.004 3.99594 339.25 8 339.25H240C244.004 339.25 247.25 336.004 247.25 332V8C247.25 3.99594 244.004 0.75 240 0.75Z" stroke="url(#paint0_radial_4075_6534)" stroke-opacity="0.2" stroke-width="1.5"/>
<path d="M8 339.25L240 339.25C244.004 339.25 247.25 336.004 247.25 332L247.25 8C247.25 3.99594 244.004 0.75 240 0.75L8 0.75C3.99594 0.75 0.75 3.99594 0.75 8L0.75 332C0.75 336.004 3.99594 339.25 8 339.25Z" stroke="url(#paint1_radial_4075_6534)" stroke-opacity="0.2" stroke-width="1.5"/>
<path fill-rule="evenodd" clip-rule="evenodd" d="M16 10C12.6863 10 10 12.6863 10 16V324C10 327.314 12.6863 330 16 330H232C235.314 330 238 327.314 238 324V16C238 12.6863 235.314 10 232 10H16ZM191.341 29.9999C192.402 29.9999 193.419 30.4214 194.17 31.1715L216.826 53.8284C217.577 54.5785 217.998 55.5959 217.998 56.6568V240.339C217.998 245.951 213.449 250.5 207.837 250.5H40.1593C34.5474 250.5 29.998 245.951 29.998 240.339V56.9999C29.998 54.7908 31.7889 52.9999 33.998 52.9999H72.8296C75.1586 52.9999 77.372 51.985 78.8918 50.2201L94.6043 32.7798C96.1241 31.0149 98.3375 29.9999 100.666 29.9999H191.341Z" fill="url(#paint2_linear_4075_6534)"/>
<path d="M90.1635 23.2818L90.1691 23.2756L90.1746 23.2692C91.5519 21.6698 93.5578 20.75 95.6684 20.75H197.343C198.205 20.75 199.032 21.0924 199.641 21.7019L226.298 48.3588C226.908 48.9682 227.25 49.7949 227.25 50.6569V312C227.25 316.004 224.004 319.25 220 319.25H161.281C158.857 319.25 156.594 318.039 155.249 316.022L147.999 305.146C146.376 302.712 143.644 301.25 140.719 301.25H106.281C103.356 301.25 100.624 302.712 99.001 305.146L91.7509 316.022C90.4063 318.039 88.1426 319.25 85.7185 319.25H28C23.9959 319.25 20.75 316.004 20.75 312V47C20.75 45.2051 22.2051 43.75 24 43.75H67.8316C70.3761 43.75 72.7944 42.6424 74.4564 40.7161L90.1635 23.2818ZM210.828 20.75H224C225.795 20.75 227.25 22.2051 227.25 24V37.1716C227.25 38.2852 225.904 38.8429 225.116 38.0555L209.945 22.8839C209.157 22.0964 209.715 20.75 210.828 20.75Z" stroke="black" stroke-opacity="0.7" stroke-width="1.5"/>
<path d="M20 29C20 24.0294 24.0294 20 29 20H58.2431C59.2386 20 59.7617 21.181 59.0927 21.9183L45.2649 37.1571C44.7778 37.6939 44.0866 38 43.3618 38H29C24.0294 38 20 33.9706 20 29Z" fill="#EDD6FF"/>
<path opacity="0.6" d="M62.6047 21.0069C63.174 20.3664 63.99 20 64.8469 20H66.742C67.6097 20 68.0656 21.0294 67.4825 21.672L53.5593 37.016C52.9906 37.6426 52.1838 38 51.3376 38H49.7265C48.8637 38 48.4059 36.9805 48.9791 36.3356L62.6047 21.0069Z" fill="#EDD6FF"/>
<path opacity="0.4" d="M70.6047 21.0069C71.174 20.3664 71.99 20 72.8469 20H74.742C75.6097 20 76.0656 21.0294 75.4825 21.672L61.5593 37.016C60.9906 37.6426 60.1838 38 59.3376 38H57.7265C56.8637 38 56.4059 36.9805 56.9791 36.3356L70.6047 21.0069Z" fill="#EDD6FF"/>
<path opacity="0.2" d="M78.6047 21.0069C79.174 20.3664 79.99 20 80.8469 20H82.742C83.6097 20 84.0656 21.0294 83.4825 21.672L69.5593 37.016C68.9906 37.6426 68.1838 38 67.3376 38H65.7265C64.8637 38 64.4059 36.9805 64.9791 36.3356L78.6047 21.0069Z" fill="#EDD6FF"/>
<g filter="url(#filter0_i_4075_6534)">
<path fill-rule="evenodd" clip-rule="evenodd" d="M133.732 313.425C133.732 310.442 131.328 308 128.39 308H117.342C114.404 308 112 310.442 112 313.425C112 316.409 114.404 318.85 117.342 318.85H128.39C129.536 318.85 130.6 318.477 131.473 317.847V318.866H133.72V313.775C133.727 313.659 133.732 313.543 133.732 313.425ZM130.4 315.466C129.859 316.016 129.145 316.318 128.39 316.318H117.342C116.587 316.318 115.873 316.015 115.332 315.466C114.791 314.917 114.493 314.192 114.493 313.425C114.493 312.658 114.792 311.933 115.332 311.384C115.873 310.834 116.587 310.532 117.342 310.532H128.39C129.145 310.532 129.859 310.835 130.4 311.384C130.941 311.933 131.239 312.658 131.239 313.425C131.239 314.192 130.94 314.917 130.4 315.466Z" fill="url(#paint3_linear_4075_6534)"/>
</g>
</g>
<defs>
<filter id="filter0_i_4075_6534" x="112" y="308" width="21.7324" height="10.8659" filterUnits="userSpaceOnUse" color-interpolation-filters="sRGB">
<feFlood flood-opacity="0" result="BackgroundImageFix"/>
<feBlend mode="normal" in="SourceGraphic" in2="BackgroundImageFix" result="shape"/>
<feColorMatrix in="SourceAlpha" type="matrix" values="0 0 0 0 0 0 0 0 0 0 0 0 0 0 0 0 0 0 127 0" result="hardAlpha"/>
<feOffset/>
<feGaussianBlur stdDeviation="1.0747"/>
<feComposite in2="hardAlpha" operator="arithmetic" k2="-1" k3="1"/>
<feColorMatrix type="matrix" values="0 0 0 0 1 0 0 0 0 1 0 0 0 0 1 0 0 0 1 0"/>
<feBlend mode="normal" in2="shape" result="effect1_innerShadow_4075_6534"/>
</filter>
<radialGradient id="paint0_radial_4075_6534" cx="0" cy="0" r="1" gradientUnits="userSpaceOnUse" gradientTransform="rotate(53.8926) scale(420.837 420.599)">
<stop stop-color="white"/>
<stop offset="0.53" stop-color="white" stop-opacity="0"/>
</radialGradient>
<radialGradient id="paint1_radial_4075_6534" cx="0" cy="0" r="1" gradientUnits="userSpaceOnUse" gradientTransform="translate(246.5 338.5) rotate(-126.107) scale(420.837 420.599)">
<stop stop-color="white"/>
<stop offset="0.53" stop-color="white" stop-opacity="0"/>
</radialGradient>
<linearGradient id="paint2_linear_4075_6534" x1="124" y1="10" x2="124" y2="533.334" gradientUnits="userSpaceOnUse">
<stop stop-color="#272931"/>
<stop offset="1" stop-color="#090C11"/>
</linearGradient>
<linearGradient id="paint3_linear_4075_6534" x1="111.863" y1="319.192" x2="132.551" y2="310.386" gradientUnits="userSpaceOnUse">
<stop stop-color="#FF9E00"/>
<stop offset="1" stop-color="#FF2200"/>
</linearGradient>
<clipPath id="clip0_4075_6534">
<rect width="248" height="340" fill="white"/>
</clipPath>
</defs>
</svg>
